<?xml version="1.0" encoding="utf-8"?>
<!-- Generator: Adobe Illustrator 18.1.1, SVG Export Plug-In . SVG Version: 6.00 Build 0)  -->
<svg version="1.1" id="yak-text" width="460px" height="330px" xmlns="http://www.w3.org/2000/svg" xmlns:xlink="http://www.w3.org/1999/xlink" x="0px" y="0px"
	 viewBox="0 0 460 330" enable-background="new 0 0 460 330" xml:space="preserve">
<g>
	<g>
		<g>
			<path fill="#C7B299" d="M103.1,64.1c0,6.7-1.1,12.6-3.4,17.5s-5.2,9-8.9,12.1C87,96.7,83,99,78.6,100.4
				c-4.4,1.5-8.8,2.2-13.1,2.2H25c3.7-2.7,5.6-6.5,5.6-11.4V38.8c0-4.8-0.3-8-1-9.7c-0.7-1.7-2.2-3.5-4.6-5.3h31.1
				c5.3,0,10.5,0.4,15.5,1.2c5,0.8,9.9,2.5,14.7,5.2c4.8,2.6,8.8,6.7,12,12.3C101.5,48,103.1,55.2,103.1,64.1z M79.9,63.1
				c0-5.5-0.9-10.2-2.7-14.1c-1.8-4-4.1-7-7-9c-2.9-2-6.1-3.1-9.6-3.1c-1,0-3.4,0.3-7.2,0.9v51.6c3.8,0.7,6.3,1.1,7.4,1.1
				c4,0,7.4-1.1,10.2-3.2c2.8-2.2,5-5.3,6.6-9.4C79.1,73.7,79.9,68.8,79.9,63.1z"/>
			<path fill="#C7B299" d="M167.2,82.9l-4.8,19.8h-54.7c1.5-0.9,2.7-2.1,3.7-3.5c1-1.5,1.7-3.1,2.1-4.9c0.5-1.8,0.7-3.7,0.7-5.7
				V36.8c0-3.5-0.3-6.2-1-8.2c-0.7-2-1.9-3.6-3.8-4.9h32.1c2.2,0,4.1,0,5.6-0.1c1.5,0,3-0.1,4.5-0.2c1.5-0.1,3.1-0.4,4.9-0.7v17.7
				c-2.7-3.7-7.1-5.6-13.1-5.6h-7.4v19.8h7.4c2.8,0,4.7-0.1,5.7-0.3c1-0.2,2-0.7,2.9-1.5v17.8c-1-1.5-2.3-2.6-4.1-3.5
				c-1.7-0.8-3.6-1.3-5.5-1.3h-6.5v22.5c3.1,0.7,5.6,1.2,7.4,1.6c1.8,0.3,3.7,0.5,5.6,0.5c3.6,0,7-0.6,10.1-1.8
				C162.3,87.5,165,85.6,167.2,82.9z"/>
			<path fill="#C7B299" d="M233.5,79.4c0,6.8-1.8,12-5.3,15.7c-3.5,3.7-7.8,6.2-12.8,7.4c-5,1.2-10.3,1.8-15.9,1.8
				c-4.4,0-8.4-0.4-11.8-1.1c-3.4-0.7-7.3-1.8-11.7-3.3l-4-17.1c3,1.8,7.2,3.7,12.8,5.5c5.6,1.9,10.4,2.8,14.4,2.8
				c3.9,0,6.7-0.7,8.5-2c1.8-1.3,2.7-3.3,2.7-5.9c0-4.2-4.9-8.4-14.6-12.5c-8.2-3.5-14.1-7.1-17.6-10.9c-3.6-3.8-5.4-8.5-5.4-14.2
				c0-4.5,1-8.3,2.9-11.4c1.9-3.1,4.5-5.7,7.6-7.5c3.2-1.9,6.5-3.2,10.1-3.9c3.6-0.8,7.2-1.1,10.9-1.1c2.7,0,5.9,0.3,9.7,1
				c3.8,0.7,7.1,1.6,10.1,2.8v14c-3.7-1.5-7-2.7-10-3.7c-3-1-5.8-1.5-8.4-1.5c-2.7,0-4.9,0.8-6.6,2.3s-2.5,3.3-2.5,5.4
				c0,3.3,3.1,6,9.4,7.9c6,3,10.6,5.4,13.7,7.2c3.1,1.8,6.2,4.7,9.2,8.5C232,69.4,233.5,74,233.5,79.4z"/>
			<path fill="#C7B299" d="M273.8,102.6h-35.6c2-0.4,3.5-1.8,4.7-4.4s1.8-6,1.8-10.6V35.8c0-2.1-0.5-4.2-1.5-6.2
				c-1-2-2.4-3.7-4.2-4.9h33c-1.7,2-2.9,3.7-3.5,5c-0.7,1.3-1,3-1,5.2v53.6C267.4,96.6,269.5,101.3,273.8,102.6z"/>
			<path fill="#C7B299" d="M350.2,100.9c-7.8,2.5-15.5,3.7-23.2,3.7c-8.9,0-16.9-1.6-24.2-4.8c-7.3-3.2-13-7.9-17.2-14
				c-4.2-6.1-6.3-13.3-6.3-21.7c0-10.5,2.3-18.9,7-25.2s10.5-10.8,17.5-13.4c7-2.6,14.2-3.9,21.6-3.9c6.5,0,12.2,0.8,17.3,2.3v17.7
				c-1.8-1.4-3.7-2.7-5.8-3.7c-2.1-1.1-4.2-1.8-6.5-2.4s-4.3-0.8-6.2-0.8c-3.8,0-7.3,0.9-10.6,2.8c-3.3,1.9-5.9,4.6-7.8,8.2
				c-2,3.6-2.9,7.7-2.9,12.5c0,3,0.3,6.2,0.9,9.7c0.6,3.5,1.7,7,3.2,10.6c1.5,3.6,3.7,6.6,6.5,9c2.8,2.4,6.3,3.6,10.3,3.6
				c1.3,0,3.3-0.3,5.8-0.8V73.5c0-3.3-0.3-5.8-0.8-7.5c-0.6-1.7-1.6-3.4-3.2-4.9h24.7V100.9z"/>
			<path fill="#C7B299" d="M436.5,24.7c-2.1,2-3.6,4.7-4.5,7.9c-0.8,3.3-1.2,6.8-1.2,10.7v61h-2c-2.8,0-5.9-0.8-9.4-2.3
				c-3.5-1.5-7-3.7-10.6-6.6c-3.6-2.9-6.6-6.2-9.2-9.7l-24.4-32.1v32.1c0,4,0.8,7.5,2.3,10.7c1.5,3.1,3.3,5.2,5.2,6.2h-26.3
				c1.9-1.4,3.5-3.4,4.7-6c1.2-2.6,1.8-5.3,1.8-8.2v-48c0-2.6-0.7-5.3-2-7.9c-1.3-2.6-3.2-5.2-5.7-7.9h25.7l36.6,47V37.8
				c0-2.6-0.5-5-1.6-7.2c-1.1-2.2-2.7-4.2-4.8-5.9H436.5z"/>
		</g>
		<path fill="#C7B299" d="M247.7,154.1h-16.3c1.7-1.1,2.6-2.1,2.6-3c0-0.5,0-0.8-0.1-0.9l-2-5.8h-9.7l-1.9,5c0,0,0,0.1,0,0.3
			s0,0.3-0.1,0.4c0,0.1,0,0.2,0,0.3c0,0.7,0.2,1.4,0.7,2s1,1.2,1.8,1.7h-11.4c0.9-0.6,1.7-1.4,2.4-2.4c0.7-1,1.1-2,1.3-3
			c1.5-4.5,2.7-8.1,3.7-10.8c0.9-2.7,1.7-5,2.3-6.9s1.1-3.3,1.3-4.1c0.2-0.8,0.3-1.4,0.3-1.8c0-1.4-0.7-2.5-2.2-3.3H233l10.8,27.6
			C244.1,151,245.4,152.6,247.7,154.1z M230,139.5l-3.5-9.7l-2.6,9.7H230z"/>
		<g>
			<path fill="#C7B299" d="M146.4,170.7l-39.4,75v40.3c0,4.5,0.9,8.2,2.6,11c1.7,2.8,4.7,6.4,8.8,10.6H58c2.6-0.7,4.9-2.8,6.9-6.4
				c2-3.6,2.9-7.5,2.9-11.7v-43.9C54.1,218.7,44,200.1,37.6,190c-6.4-10.1-11.5-16.5-15.3-19.3h52.4l22.7,47.1l12.9-24.4
				c1.1-2.3,1.6-5.2,1.6-8.7c0-2.7-0.5-5.3-1.6-7.9c-1.1-2.6-2.8-4.6-5.1-6.1H146.4z"/>
			<path fill="#C7B299" d="M291.6,307.7h-69.3c7.3-4.6,10.9-8.8,10.9-12.6c0-2-0.2-3.3-0.5-3.8l-8.4-24.6h-41l-8.1,21.1
				c0,0.2,0,0.5-0.1,1.1c-0.1,0.5-0.2,1.1-0.3,1.7c-0.1,0.6-0.1,1-0.1,1.1c0,2.9,0.9,5.8,2.8,8.7c1.9,2.8,4.4,5.3,7.6,7.3h-48.5
				c3.8-2.4,7.1-5.7,10.1-10.1c2.9-4.3,4.8-8.6,5.7-12.8c6.5-19.2,11.7-34.5,15.5-45.9c3.9-11.4,7.2-21.2,9.9-29.3
				c2.7-8.1,4.6-13.9,5.5-17.2c0.9-3.4,1.4-5.9,1.4-7.6c0-6.1-3.1-10.8-9.4-14h54.1l45.6,117.1C276.2,294.5,281.7,301.1,291.6,307.7
				z M216.3,245.7l-15-41.1l-11.1,41.1H216.3z"/>
			<path fill="#C7B299" d="M438.8,307.7h-30.9c-5.5,0-10-0.4-13.6-1.1c-3.6-0.7-6.9-2.4-10-5c-3.1-2.6-6.2-6.6-9.2-12l-25.1-41.1
				v39.2c0,4.6,1,8.6,2.9,12c1.9,3.4,4.3,6.1,7.1,8h-61c3.9-1.5,6.8-4.5,8.7-9c2-4.5,2.9-9.2,2.9-14v-90.2c0-5.2-0.9-9.6-2.7-13
				c-1.8-3.5-4.8-6.7-9-9.8h61c-2.5,1.8-4.5,3.4-5.8,4.8c-1.4,1.4-2.4,3.1-3.1,5.1c-0.7,2-1.1,4.6-1.1,7.9v42.6l31.6-41
				c1.7-2.7,2.6-5,2.6-7c0-3.8-3-8-9-12.4h55.6l-47.5,55.6l38.1,57.4C427.9,296.3,433.7,304,438.8,307.7z"/>
		</g>
	</g>
	<g>
		<line fill="#C7B299" x1="191" y1="140" x2="22" y2="140"/>
		<g>
			<path fill="#C7B299" d="M22.3,137.8c-0.1,0.3,0,0.8,0.2,0.7l0.2-1L22.3,137.8z"/>
			<path fill="#C7B299" d="M24,139.7c0.3-0.5,0.6-1.3,0.4-2.2c-0.3,1-0.4,0.6-0.7,1.7c-0.2,0.1-0.4-0.3-0.4-0.7
				c-0.1,0.3-0.4-0.2-0.5,0.4c0.3,0.8,0.7,0.8,1.1,0.2C24.1,139.2,24,139.5,24,139.7z"/>
			<path fill="#C7B299" d="M48,141.2l-0.2-0.1C47.8,141.2,47.9,141.2,48,141.2z"/>
			<path fill="#C7B299" d="M62.8,141.8c-0.1,0-0.2,0.1-0.2,0.2C62.7,141.9,62.8,141.9,62.8,141.8z"/>
			<path fill="#C7B299" d="M65.3,142.9c-0.1,0-0.1,0-0.1-0.1C65.3,142.9,65.3,143,65.3,142.9z"/>
			<path fill="#C7B299" d="M48,141.2l0.4,0.3C48.4,141.2,48.2,141.3,48,141.2z"/>
			<path fill="#C7B299" d="M27.3,137.3c-0.1,0-0.2,0.1-0.2,0.3c0.1,0,0.1-0.1,0.2-0.1C27.3,137.4,27.3,137.3,27.3,137.3z"/>
			<path fill="#C7B299" d="M41.4,142l-0.1,0c0,0.1-0.1,0.2-0.1,0.4L41.4,142z"/>
			<path fill="#C7B299" d="M36.4,142.2c0.1,0,0.2-0.8,0.2-1.2c-0.1,0.3-0.1,0.5-0.2,0.6C36.3,141.8,36.4,141.9,36.4,142.2z"/>
			<path fill="#C7B299" d="M28.4,140.7l-0.1,0.1C28.3,140.8,28.4,140.8,28.4,140.7z"/>
			<path fill="#C7B299" d="M45,142.2c0,0.1,0,0.2,0,0.3C45.1,142.4,45,142.3,45,142.2z"/>
			<path fill="#C7B299" d="M185.5,135.9c0,0.1,0,0.1,0,0.1C185.6,136,185.6,135.9,185.5,135.9z"/>
			<path fill="#C7B299" d="M191.3,140.1L191.3,140.1c-0.1,0.2-0.1,0.4-0.1,0.5L191.3,140.1z"/>
			<path fill="#C7B299" d="M70,144C70,143.9,70,143.9,70,144C69.8,144,69.9,144,70,144z"/>
			<path fill="#C7B299" d="M112.6,143.3c-0.5-0.8,0.8-1,0.1-1.8C112.7,141.9,112,142.8,112.6,143.3z"/>
			<path fill="#C7B299" d="M27.4,137.4c0.1,0,0.1,0,0.2,0C27.5,137.4,27.5,137.4,27.4,137.4z"/>
			<path fill="#C7B299" d="M112.6,141.5C112.6,141.5,112.6,141.5,112.6,141.5L112.6,141.5C112.6,141.5,112.6,141.5,112.6,141.5z"/>
			<path fill="#C7B299" d="M80.7,143.4c0-0.1-0.1-0.3-0.1-0.4C80.6,143.2,80.6,143.3,80.7,143.4z"/>
			<path fill="#C7B299" d="M72.7,142.2l0.2,0.1C72.8,142.3,72.8,142.3,72.7,142.2z"/>
			<path fill="#C7B299" d="M84.8,142.3c0.1,0.1,0.1,0.2,0.3,0.1c0,0,0-0.1,0-0.1C85,142.3,84.9,142.4,84.8,142.3z"/>
			<path fill="#C7B299" d="M89.1,142.3c0-0.1-0.1-0.1-0.1-0.2c0,0-0.1,0-0.1,0L89.1,142.3z"/>
			<path fill="#C7B299" d="M172.4,136.3c0.1,0.2,0.2,0.5,0.2,0.8C172.6,136.5,173.2,136.2,172.4,136.3z"/>
			<path fill="#C7B299" d="M27.3,137.8c0-0.2,0.1-0.3,0.1-0.4c0,0-0.1,0-0.1,0C27.3,137.6,27.3,137.7,27.3,137.8z"/>
			<path fill="#C7B299" d="M85,135.6l0.7,0.1C85.5,135.6,85.2,135.6,85,135.6z"/>
			<path fill="#C7B299" d="M141.6,136.4l0.2-0.1C141.7,136.3,141.6,136.3,141.6,136.4z"/>
			<path fill="#C7B299" d="M87.7,135.6c0.1,0.3,0.3,0.5,0.4,0.6c0-0.1,0.1-0.1,0.1-0.2L87.7,135.6z"/>
			<path fill="#C7B299" d="M172.6,137.1C172.6,137.1,172.6,137.1,172.6,137.1C172.6,137.1,172.6,137.1,172.6,137.1z"/>
			<path fill="#C7B299" d="M177.1,135.1c-0.7,0-0.3,1.1-0.4,1.7c-0.8,0.3-0.4-0.8-0.6-1.4c-0.5,0.3-0.9,1.3-1.2,1.3
				c0-0.2-0.1-0.2,0-0.5c-0.5,0.9-1.5,0-2.1,1.1c0-0.1-0.1-0.2-0.1-0.3c0.1,0.6,0.1,1.1,0.1,1.5c-0.3,0-0.5,0.7-0.7,0
				c0.2,0,0.2-0.3,0.3-0.5l-0.3,0.3c-0.3-1,0.4-0.4,0.4-1.1c-0.6,0.3-1.3,1.2-1.7,0.9c-0.1-1,1.1-0.3,0.5-1.2l0.7,0.4
				c-0.5-1.6,0.4,0.1-0.1-1.6c-0.9-0.3-1,0.5-2,0.2c-0.2,0.6,0.1,0.8-0.1,1.4c-1.3,1-1-2.6-2-1.2c-0.3,0.7-0.3,2-1,1.3l0.2-1.2
				c-0.9-0.1-0.5,1.7-1.5,0.9c0.2-0.5,0.7-0.4,0.6-0.5c-0.6-0.9-0.4,0.7-0.9,0.7l-0.1-1c-1,0.2-2,0.9-3.1,1.1c0.1-0.3,0.2-0.6,0-0.9
				c-1.3,0.5-2.9-0.1-4.2-0.7l-0.5,0.9c-0.1,0-0.2-0.4-0.1-0.6c-0.5-0.3,0,0.6-0.3,0.9c-0.3,0.1-0.4-0.5-0.2-0.8
				c-0.9,0.7-2.5,1.6-3.5,0.7l0.2-0.3c-0.7-0.4-0.8,1.8-1.5,1l0.1-0.2c-1.6-0.4-3.3,0.4-4.5-0.9c-0.2,1.3-1.6-0.6-1.7,1.2
				c-0.9-0.9-0.6-1.2-1.9-1.8c-0.3-0.1-0.5,1.1-0.9,1.3l0-0.9l-0.6,1l-0.3-1.1l-0.4,0.2c0.2,0.1,0.3,0.4,0.3,0.7
				c-0.6,0.4-1.5-0.6-1.5-1.1l-1.5,0.8c0-0.4,0.3-0.5,0.5-0.7c-0.8,0.9-0.1-1-0.9-0.1c0.1,0.2-0.1,0.6-0.1,0.7
				c-0.4-0.6-1.2-0.6-1.8-0.3l0.1-0.6c-1.1-0.2-2.3,0.3-3.5,0.3c0.4,0.3,0.3,1.4,0,1.5l-0.1-1c-0.2,0.6,0.4,0.4-0.1,1.1
				c-0.5-0.1-0.3-1.1,0-1.4l-0.6,0.3c0-0.3,0.1-0.4,0.1-0.8c-0.2,0.6-1-1-1.3,0.1l0-0.3c-1.2,0-1.8,0.3-2.8,0.4
				c0,0.8-0.4,0.7-0.7,1.3c-0.7-0.3-1.5-0.9-2.4-0.9c-0.6,0.4-0.2,0.7-0.5,1.2c0-0.8-0.9-0.7-0.5-1.2c-1.1,0.1-1.3,0.2-2.7,0.8
				c0.1,0.3,0.3,0.5,0.2,0.7c-0.2,0.1-0.5-0.3-0.5-0.7l0.1-0.1c-1.5,1.2-3.4-2.2-4.6-0.6l0.1-0.1l-1.2,0.8c-0.6-0.1,0.3-0.6-0.1-1.1
				c-1.3,1.3-2.1-0.2-3.2,0.7c-0.8-2.3-3,0.2-4.1-1.3l0.1,0.5c-0.3,0.5-0.4-0.3-0.6-0.4c0,0.4,0.3,0.5,0.1,0.8
				c-2.5,0.6-5.2-0.8-7.7-1.3c-0.9-0.1-0.5,2.8-1.7,1.5l0.3-1c-1.9,1.2-3.9,0-5.7,1c0.1-0.2,0.1-0.5,0.3-0.5c-0.4-0.7-1.4,0-1.5,0.6
				c-0.3-0.1-0.1-0.5-0.2-0.8c-0.4-0.4-1,0.9-1.2,0.2c0-0.1,0.1-0.2,0.2-0.3c-0.3,0.3-1.2-0.1-0.9,0.7c-0.7-0.4-1.3,0.4-1.9-0.1
				c-0.4,0.9-1.2-0.4-1.3,0.9c0-1.4-1.2-1.1-1.7-0.5c0.1-0.4-0.4-0.4-0.2-1c-0.5,0-1,0.3-0.9,1c-0.9-1.6-1.9,1.3-2.4-0.8
				c-1.5,0.7-2.9,1.2-4.2,1.5c0-1.4,1.5-0.1,1.4-1.6c-1.3,0.6-2,1.7-3.3,1.4c-0.3-0.2,0.2-0.6,0.3-0.8c-1.3,0.6-2.5-0.1-3.6,0.6
				c0-0.1,0.1-0.3,0.2-0.4c-0.2,0-0.5-0.2-0.5,0.4l0.2-0.2c0.4,0.9-0.9,1.9-0.9,2.3c0.4-1.8-1.1-0.4-0.5-2.7
				c-0.1,0.1-0.3,0.4-0.3,0.8c-0.2-0.1-0.3-0.4-0.1-0.8c-0.8,0.3-0.5,1-1.2,1c0-0.3,0.1-0.4,0.2-0.8c-0.4,0.6-0.7,1.2-1.3,0.9
				c0-0.2,0-0.4,0.1-0.4c-1,0.1-1.8,1.5-2.9,1c0.3-1.3-0.4-0.4-0.5-1.5l-0.6,0.3l0.2,0.5c-0.5,0-1,0.8-1.5,0.4l0.4-0.5l-1,0.2
				l0.6,0.4c-0.5,0.6,0.1,1.4-0.7,1.1c0.1-0.1-0.5,0-0.8-0.7c0,0,0,0,0,0c-0.3,0.4-0.5,0.7-0.9,0.5c-0.1-0.4,0.1-1.2,0-1.5
				c-0.3,0.9-1.3,0.3-1.6,1.3c0.1-0.2,0.1-0.8,0.1-0.9l-0.2,0.8c-0.3-0.2-0.3-0.4-0.2-0.8c-0.8-0.1,0.2,1.4-0.7,0.8
				c0.1-0.1,0-0.2,0.2-0.3c-0.9-0.3-1.7,0.5-2.6,0.1c-0.2-1.1,0.7-0.3,0.4-1.2c-1.2,0.2-2.5,1.4-3.6,1.1l0.2,0.1
				c-0.2,1.6-0.9-0.8-1.4,0c0.1-0.1,0.2-0.9,0.1-0.7c-0.8-0.3-1.6,0.4-2.8,0.9l0.1-0.4c-0.5-0.4-1.2-0.2-1.7-0.4
				c-0.1,0.4-0.4,0.3-0.3,0.9c-1.6-2.3-3,1.2-4.3-0.7c0.2,0,0.4-0.4,0.3-0.4l-1.2,0.4c0.1,0.7,0.2,0.4,0.4,1
				c-0.1,0.4-0.5,0.7-0.8,0.7c0.5-0.5,0-1.1-0.2-1.5c0,0.2,0,0.4,0,0.7c-0.6-1.2-0.1,1.4-0.9,0.6l0-0.4c-0.3,0.2-0.6,0.7-0.9,0.6
				c-0.1-0.8,0.3-0.4,0.4-1c-0.5,0-0.9,1.5-1.4,0.7c0.2-0.2,0.5-0.2,0.7-0.4c-0.5-0.9-0.5-0.7-0.9-0.9l0,0l-0.8-0.4l0.2,0.3
				c-0.6,2.1-1.2,0.4-2,1.8c0.8-1.3,0.1-0.8,0.2-1.7c-0.2-0.3-0.5-0.5-0.4-0.8c-0.4,0.7-0.6-0.6-1.2,0.5c0-0.3-0.4,0-0.3-0.8
				c-0.5,0.2,0.1,0.5,0.1,0.9c-0.8,1-1.8-1.2-2.9,0.2c-0.9,0.6-1.1,1.6-2,2c-0.3-0.5,0.2-1.1,0.2-1.1c-0.5-0.4-0.8-0.4-1.3,0
				c0.1-0.3,0-0.5-0.1-0.8c-0.4,0.1-0.2,1.1-0.7,0.6c0.1-0.3,0.2-0.8,0.4-1.2c-0.4,0.3-0.8,0.8-1.3,1.1c-0.1-0.5,0.3-0.8,0.4-1.1
				c-0.5,0.2-1.3,0.5-1.4,1.3l0.3,0.3c-0.2,0-0.1-0.7,0-0.8c0.4-0.6,0.6,0.3,0.6,0.6l-0.3,0.2c0.3,1.7,1.3-0.3,1.9-0.2l-0.3,1.2
				l0.6-1c0.1,0.3,0.2,1-0.1,1.2c0.5,0.6,0.4-0.4,0.8,0.2c0,0.1,0,0.2,0,0.2l0.4-0.4c-0.1,0.3,0.1,0.9-0.2,0.7
				c0.8,0.7,1.3-0.9,1.6,0l-0.1,0.1c1.1-0.4,0.1-0.9,0.9-2l0.6,2.3l0.1-0.9c0.1,0,0.3,0.1,0.3,0.5c0.4-0.6-0.1-0.4,0.2-1
				c0.5,0.8,1.5-0.4,1.6,1.1c0.2-0.7-0.5-0.5,0.1-1c0.2,1.6,0.7-0.3,1.2,0.5c-0.2,0.8-0.6,0.4-0.1,1.1c0.3-1.4,1,0.3,1.4,0
				c0-1.1,0.9-0.5,1.6-0.8c0,0.4,1.3,0.6,2,1l0,0.2c0.1-1.1,0.8-0.9,1.3-1.1c0,0.7-0.1,0.9-0.4,1.2l0.5,0c0.1-0.4,0.3-0.5,0.6-0.7
				l-0.1,0.8c0.6,0,1.2-1,2-0.4c0-0.8-0.6-2.1,0.2-2.7c0,0.4,0.1,1.1-0.2,1.3c0.1-0.1,0.3-0.3,0.4-0.2l-0.3,0.7
				c0.4,0.3,0.2-0.6,0.5-0.5c0,0.6,0.2,0.4,0.2,0.9c-0.1,0.1-0.3-0.2-0.4,0c0.3,0.1,0.7,0.5,0.8,0.9c0-0.3,0-0.8,0.2-0.9
				c0.6,0,0.2,0.7,0.6,1c0.1-0.4,0.5,0,0.6-0.9c0.2,0,0.2,0.4,0.3,0.7c0.3-0.4,1.5-0.1,1.1-1.1l-0.1-0.1c0,0,0,0,0.1,0c0,0,0,0,0,0
				h0c1-1,2.2,0.5,3.2,0.1l0,0.3c0.6-0.3,1.4-0.2,1.8-0.8c0.2,0,0.4,0.5,0.4,0.9c0.5-0.2,0.5-0.6,1.2-0.1c-0.5,0.5,0.2,0.5-0.5,0.4
				c0.6,0.3,0.8,0.7,1.4-0.1c-0.2,0.8,0.5,1,0.8,0.7l-0.4-0.5c0.3-0.1,0.6,0,0.9,0l-0.2,1c1.3,1.2,2.3-2.1,3.2,0
				c0.3-0.7-0.7-0.5-0.4-1.3c0.6,0.1,1.2,1.6,1.4,1.6c0.8,0.6,0.7-1.5,1.6-1.1c-0.1-0.4-0.2-1.3,0.4-1.6c0.6,0.1,0.7,1.5,0.3,1.8
				c-0.1,0-0.2-0.1-0.2-0.2c-0.2,0.1-0.4,0.3-0.2,0.7l0.1-0.4c0.3,0.4,1.1,0.3,0.9,0.9c0.4-0.3,0.2-0.6-0.1-0.8
				c0.7,0.5,1.2,0,1.9,0.4c-0.1-0.2-0.2-0.6-0.1-0.6c1.1,0.4,0.5-0.7,1.3-0.8c0.4,0.5-0.2,1.3,0.6,0.8c0.5,0.4,0.1,0.9-0.1,1.2
				c0.7-0.7,1.3,0.5,1.7,0.6l-0.4,0.3c0.2-0.2,0.4-0.2,0.6-0.2l-0.2-0.7c0.2,0.1,0.4,0.1,0.4,0.4c0.2-0.5-0.2-1.2,0.3-1.8
				c0.3,0.4,0.9-0.4,1,0.6c-0.9-0.3,0.1,0.9-0.7,1.1c0.1-0.1,0.3-0.1,0.5,0c0,0.1,0,0.2-0.1,0.2c0.9,0.8,0.4-1.1,1.3-1
				c-0.1,0.5,0.2,1,0.4,0.9c-0.4,0-0.2-0.9,0.2-1.3c0.6,0.4,0.6-0.3,0.9-0.3l-0.3-0.2c0.1-0.5,0.4-0.5,0.8-0.6
				c0,0.4-0.4,0.3-0.2,0.5c0.4-0.9,1,1,1.6,0.3c0.3,0.4,0,1,0.3,1.2c0.7-0.7,0.8,0.7,1.5,0.2c-0.2-0.7-0.2-0.5,0.3-1.2l-1.2,0.5
				l0.8-1c-0.4,0-0.8,0.4-1,0.3c0.4-0.6,0.3-0.4,0.2-1c0.5,1.1,1-0.6,1.6,0.1l0,1.8c0.9,0.8,1.5-0.9,2.6-0.5l-0.4-0.3
				c0.1-0.7,0.7-0.1,1.1-0.4c0,0.6,0.2,0.8,0.3,1.2c0-0.4,0.8,0,0.9-1.1l0.5,0.8c0.9,0.3,1-1.7,1.9-1.5c-0.3,0.6,0.1,1.1-0.4,1.5
				c0.3,0,0.5,0.1,0.6-0.3c0.2,0.4,0.8-0.8,1.1-0.2c0.1-0.3,0.2-0.9,0.5-0.8c0,0.1,0,0.3,0,0.3c0-0.3,0.5-0.4,0.2-1.1
				c0.9,1.8,2.5-0.1,3.3,1.5c0.6-0.2,1.4-0.4,2-0.4c0,0.2,0,0.3-0.1,0.2c0.8,0.6,0.5-1.7,1.4-1.1c0.5,1-0.5,0.5-0.2,0.9
				c0.1,1.9,1.1-0.3,1.7,0.9l-0.1,0.1c0.5,0.7,1.1-0.7,1.9-0.6c0,0,0,0.2,0,0.3c0.5-1,1.5-1.3,2.2-1.6c-0.2,0.8-0.3,0.4-0.2,1.2
				c0.3-0.1-0.1-1.2,0.6-1.5c0.2,0.4,0.7,0.8,0.7,1.6l-0.6,0c0.3,1.1,0.8,0,1.1,0.1l0,0.5c0.9-0.2,1-1.3,2-1.2l-0.1-0.4
				c0.6-1.2,0.5,0.7,1-0.2l0.2,1.2c0.4-0.3,1.3-1.1,1.9-1.4c-0.4,0.9-1.1,1.3-1.6,1.8c0.4,0,1.2-0.1,1.4-0.7
				c-0.1,0.1-0.3,0.4-0.5,0.2c0.4-0.9,1-1.4,1.7-1.4c-0.1,2.3,1.9,0.6,2.4,2.4c1.3-0.8,2.5,0.4,4,0.2c-0.5-1.8,0.4-0.1,0.3-1.9
				c0.3-0.1,0.5-0.1,0.5,0l1,1.1c0.2,0.5-0.3,0.4-0.3,0.8c0.8,0.1,0.3,0.8,0.8,1.3c-0.1-0.7,0.3-0.9,0.7-0.7l-0.6-0.8
				c1.1-1,0.9,1.5,2,0.6l-0.3,0.6c0.5-0.3,2,0,2.6-1.5c0.1,0.2,0.2,0.7,0,0.8c1.3,0.2,2.9-1.6,3.9-0.7l-0.1,0.4
				c0.2-0.1,0.4-0.8,0.7-0.4c0,0.2-0.1,0.4,0,0.5c0.1-0.2,0.6-0.8,1-0.5l-0.3,0.5c1.3,0.6,2-1.2,3-1.5c0,1.3,1,1.7,1.5,2l0,0.2
				c1.5,0.2,2.5-1.1,3.9-1.6c0.9,1.4,2.9,0.6,4.3,1.4c-0.2-0.2,0-1,0.3-1.2c0.3,0.3,0.9-0.9,0.8,0.3l-0.1,0c0.2,1.2,0.9,0.9,1.4,0.9
				l0.1-1.6c1.4,2.3,3.5-0.8,4.3,1.2c0.3-0.4,0.7-0.4,1.1-0.8l0,0.8c0.9,0.2,1.4,0.3,2.5,0.1l-0.2,0.6c0.6,0.1,0.8-2.4,1.4-2.5
				l0.2,1.3c1.1,0,2.2,1.1,3.3-0.1c0,0.2-0.1,0.6-0.2,0.6c0.5,0,2,0.9,1.8-0.9c0,1.1,1.1,0.1,1.7-0.4l-0.1,0.8
				c0.5-1.1,0.5-1.4,1.2-1.7c0.2,0.1,0.1,0.7-0.1,0.5c0.6,0.4,0.4-0.8,1.1-0.3l-0.2,0.5c0.6,0.1,0.5-0.2,0.8-0.8
				c0.4-0.3,1.1,0.2,1.2,1c0.1-0.5,0.4-1.1,0.7-0.9c0,0.3-0.1,0.5-0.1,0.5c1,0.6,1.4-1,2.1-0.2c0,0.3,0.1,0.4,0.1,0.5
				c-0.8,0-1.4-0.1-1.3-0.1c0,0.8,0.6,0.9,0.1,2c0.5-0.6,1.3-1.8,1.9-1.5c0,0.1,0.1,0.1,0.1,0.3l-0.1,0.1c0.1,0.1,0.3,0,0.4-0.1
				c0.2,0.1,0.3,0.2,0.5,0.2c0.1,0.6,0.7,0.3,1,0.4c0-0.8,0.4-0.7,0-1.4c0,0.1-0.1,0.1-0.3,0.1c0,0-0.1,0-0.1,0.1c0,0,0,0,0-0.1
				c-0.2,0-0.5,0-0.8,0.1c0.2-0.4,0.5-0.8,0.8-0.3c0.2-0.5,0.3-1.1,0.4-1.4c0.4,1.2,1.2,1.8,1.3,2.5c0.9-0.5,2.2-0.3,2.8-1.9
				c0.3-0.2,0.3,0.5,0.4,0.7c-0.2,0.2-0.3,0.1-0.4,0.4c0.5-0.4,1.6-0.2,1.7-1.3c0.7,0.5-0.4,1,0.5,0.8l-0.1,0.3
				c1.8,1.8,2.9-2.8,4.9-0.6c-0.1-0.1-0.2-0.2-0.2-0.4c2.3,1,4.7-0.9,6.9,0.6c0.6,0.3,0.7-0.4,1.1-0.9l0.1,0.9l0.7-1
				c0.9-0.8,1.6,2.2,2.8,0.8l-0.2-0.6c0.4,0.1,1.4-0.4,1.3,0.3c0-0.1,0.1-0.6,0.3-0.3l0,0.5l1.1-0.8c0.8,0.3-0.1,1.9,1.1,2
				c0.4-0.2,1.3-1.4,1.1-1.7c-0.2,0-0.5-0.3-0.5-0.8l0.4-0.2c0.1-1.4,0.4-2.8-0.6-3.8l-0.7,0.9l-0.2-0.7l0.6,0
				c-0.3-0.6-0.5-0.1-0.8,0.3c-0.1-0.4-0.2-0.6-0.3-0.7l-0.7,1.3c-0.1-0.5,0.3-1.1-0.2-1.4c-0.3,0.6,0.3,1.2-0.2,1.6
				c-0.3-0.6-0.2-1.2-0.6-0.6c-0.1-0.4,0-0.6,0.2-0.7c-0.3,0.4-0.9,0.2-1.1,0.9c-0.3-0.8-1.2,0.2-1.1-1.1c-0.1,0.3-0.6,1-0.9,1.1
				c0.6-1.6-1.2-0.1-1-1.8c-0.4,1.4-1.6,0.6-2.3,1.4c0-0.1,0.1-0.3,0.2-0.3c-0.4-0.1-0.6-0.5-0.8-0.8c-0.1,1.2-0.7,1.4-1.1,2.2
				c-0.5-1.1,0.3-1.4,0.2-2.5c0,1-0.9,1-0.7,1.7c-0.4-0.7-0.3-0.3-0.6-1.3c-0.1,1.5-0.4,0.2-0.7,1.2c-0.6-0.7-0.1-1.4-0.8-0.9
				C176.6,135.6,177.1,135.1,177.1,135.1z M161.9,137.6C161.9,137.6,161.9,137.6,161.9,137.6c0.1,0,0.2-0.1,0.3-0.1
				C162.2,137.5,162.1,137.6,161.9,137.6z M160.6,137.6c0.2,0,0.3,0,0.6,0c0,0.3,0,0.6-0.1,0.6C161.1,138,160.8,137.9,160.6,137.6z
				 M163.4,143.5c-0.2,0.1-0.3,0-0.3-0.2c0.1,0,0.2,0,0.4-0.1c0,0,0-0.1,0-0.1C163.4,143.2,163.4,143.3,163.4,143.5z"/>
			<path fill="#C7B299" d="M163.7,142.3C163.7,142.3,163.8,142.3,163.7,142.3c0-0.1,0-0.2,0-0.3c0,0.1,0,0.2-0.1,0.3
				C163.6,142.4,163.7,142.4,163.7,142.3z"/>
			<path fill="#C7B299" d="M47.8,141.1L47.8,141.1c0,0,0,0,0-0.1C47.8,141,47.8,141.1,47.8,141.1z"/>
			<polygon fill="#C7B299" points="143,136 143,136.2 143.1,136 			"/>
			<path fill="#C7B299" d="M40.7,138.2c0-0.1,0-0.2-0.1-0.2C40.6,138,40.7,138.1,40.7,138.2z"/>
			<path fill="#C7B299" d="M37.7,138l-0.4-0.3C37.4,137.9,37.6,138,37.7,138z"/>
			<path fill="#C7B299" d="M35.4,137.6c0,0.1,0,0.3,0,0.4c0,0,0,0,0,0L35.4,137.6z"/>
			<path fill="#C7B299" d="M72.5,136.6C72.6,136.6,72.6,136.6,72.5,136.6C72.9,136.4,72.7,136.5,72.5,136.6z"/>
			<path fill="#C7B299" d="M61.5,138.6c0.1-0.2,0.2-0.3,0.4-0.4C61.6,138.1,61.5,138.1,61.5,138.6z"/>
			<path fill="#C7B299" d="M84.9,135.6C84.9,135.6,84.9,135.6,84.9,135.6C84.9,135.6,85,135.6,84.9,135.6L84.9,135.6z"/>
			<path fill="#C7B299" d="M62.4,138.2c-0.2-0.2-0.4-0.1-0.5,0C62,138.2,62.2,138.3,62.4,138.2z"/>
			<path fill="#C7B299" d="M25.2,137.2l-0.1,0c0,0.1,0,0.1,0,0.1L25.2,137.2z"/>
			<path fill="#C7B299" d="M25.1,137.3l-0.1,0.1C25,137.4,25.1,137.4,25.1,137.3z"/>
			<path fill="#C7B299" d="M24.7,137.6l0.3-0.2C24.9,137.4,24.8,137.4,24.7,137.6z"/>
			<path fill="#C7B299" d="M28.3,137.6l0-0.3C28.3,137.4,28.3,137.5,28.3,137.6z"/>
			<path fill="#C7B299" d="M29.3,137.5c-0.2-0.1-0.6-0.7-0.9-0.5l0,0.2C28.5,136.8,29,138,29.3,137.5z"/>
			<path fill="#C7B299" d="M33.2,141.3l-0.8-0.2c0.1,0.3,0.3,0.8,0,0.8C33.3,142.9,32.1,141.2,33.2,141.3z"/>
			<path fill="#C7B299" d="M35.6,141.8c-0.4,0.2,0,0.5,0,0.7C35.9,142.1,35.9,142.1,35.6,141.8z"/>
			<path fill="#C7B299" d="M53.3,141.8l0,0.8C53.6,142.4,53.3,142.2,53.3,141.8z"/>
			<polygon fill="#C7B299" points="56.7,137.8 56.4,137.3 56.2,138 			"/>
			<polygon fill="#C7B299" points="58.7,143.3 58.5,143.4 59.1,143.1 			"/>
			<path fill="#C7B299" d="M88.3,143l-0.1-0.9C88,142.2,88,143.3,88.3,143z"/>
			<path fill="#C7B299" d="M101.2,142c0.1,0.5,0.5,0.8,0.7,0.3C101.6,142.3,101.3,141.9,101.2,142z"/>
			<polygon fill="#C7B299" points="139.6,143.6 139.3,143.9 139.8,143.6 			"/>
		</g>
	</g>
	<g>
		<line fill="#C7B299" x1="267" y1="140" x2="436" y2="140"/>
		<g>
			<path fill="#C7B299" d="M436.3,141.8c0.1-0.3,0-0.8-0.2-0.7l-0.2,1L436.3,141.8z"/>
			<path fill="#C7B299" d="M434.7,140c-0.3,0.5-0.6,1.3-0.4,2.2c0.3-1,0.4-0.6,0.7-1.7c0.2-0.1,0.4,0.3,0.4,0.7
				c0.1-0.3,0.4,0.2,0.5-0.4c-0.3-0.8-0.7-0.8-1.1-0.2C434.6,140.4,434.7,140.2,434.7,140z"/>
			<path fill="#C7B299" d="M410.7,138.5l0.2,0.1C410.8,138.5,410.8,138.5,410.7,138.5z"/>
			<path fill="#C7B299" d="M395.9,137.9c0.1,0,0.2-0.1,0.2-0.2C395.9,137.8,395.9,137.8,395.9,137.9z"/>
			<path fill="#C7B299" d="M393.3,136.8c0.1,0,0.1,0,0.1,0.1C393.4,136.8,393.4,136.7,393.3,136.8z"/>
			<path fill="#C7B299" d="M410.7,138.5l-0.4-0.3C410.3,138.5,410.5,138.4,410.7,138.5z"/>
			<path fill="#C7B299" d="M431.4,142.4c0.1,0,0.2-0.1,0.2-0.3c-0.1,0-0.1,0.1-0.2,0.1C431.4,142.3,431.4,142.3,431.4,142.4z"/>
			<path fill="#C7B299" d="M417.3,137.6l0.1,0c0-0.1,0.1-0.2,0.1-0.4L417.3,137.6z"/>
			<path fill="#C7B299" d="M422.3,137.5c-0.1,0-0.2,0.8-0.2,1.2c0.1-0.3,0.1-0.5,0.2-0.6C422.4,137.9,422.3,137.7,422.3,137.5z"/>
			<path fill="#C7B299" d="M430.3,139l0.1-0.1C430.4,138.9,430.3,138.9,430.3,139z"/>
			<path fill="#C7B299" d="M413.7,137.5c0-0.1,0-0.2,0-0.3C413.6,137.3,413.7,137.4,413.7,137.5z"/>
			<path fill="#C7B299" d="M273.2,143.8c0-0.1,0-0.1,0-0.1C273.1,143.7,273.1,143.8,273.2,143.8z"/>
			<path fill="#C7B299" d="M267.3,139.6L267.3,139.6c0.1-0.2,0.1-0.4,0.1-0.5L267.3,139.6z"/>
			<path fill="#C7B299" d="M388.7,135.7C388.7,135.7,388.7,135.7,388.7,135.7C388.8,135.7,388.8,135.7,388.7,135.7z"/>
			<path fill="#C7B299" d="M346.1,136.4c0.5,0.8-0.8,1-0.1,1.8C346,137.8,346.7,136.8,346.1,136.4z"/>
			<path fill="#C7B299" d="M431.3,142.3c-0.1,0-0.1,0-0.2,0C431.1,142.3,431.2,142.3,431.3,142.3z"/>
			<path fill="#C7B299" d="M346.1,138.2C346.1,138.2,346.1,138.2,346.1,138.2L346.1,138.2C346.1,138.2,346.1,138.2,346.1,138.2z"/>
			<path fill="#C7B299" d="M378,136.2c0,0.1,0.1,0.3,0.1,0.4C378.1,136.5,378.1,136.4,378,136.2z"/>
			<path fill="#C7B299" d="M386,137.4l-0.2-0.1C385.9,137.4,385.9,137.4,386,137.4z"/>
			<path fill="#C7B299" d="M373.9,137.4c-0.1-0.1-0.1-0.2-0.3-0.1c0,0,0,0.1,0,0.1C373.7,137.4,373.8,137.3,373.9,137.4z"/>
			<path fill="#C7B299" d="M369.6,137.4c0,0.1,0.1,0.1,0.1,0.2c0,0,0.1,0,0.1,0L369.6,137.4z"/>
			<path fill="#C7B299" d="M286.2,143.4c-0.1-0.2-0.2-0.5-0.2-0.8C286.1,143.2,285.5,143.5,286.2,143.4z"/>
			<path fill="#C7B299" d="M431.4,141.9c0,0.2-0.1,0.3-0.1,0.4c0,0,0.1,0,0.1,0C431.4,142.1,431.4,142,431.4,141.9z"/>
			<path fill="#C7B299" d="M373.7,144.1L373,144C373.2,144,373.5,144.1,373.7,144.1z"/>
			<path fill="#C7B299" d="M317.1,143.3l-0.2,0.1C317,143.4,317.1,143.4,317.1,143.3z"/>
			<path fill="#C7B299" d="M371,144.1c-0.1-0.3-0.3-0.5-0.4-0.6c0,0.1-0.1,0.1-0.1,0.2L371,144.1z"/>
			<path fill="#C7B299" d="M286,142.6C286,142.6,286,142.6,286,142.6C286,142.6,286,142.6,286,142.6z"/>
			<path fill="#C7B299" d="M281.5,144.6c0.7,0,0.3-1.1,0.4-1.7c0.8-0.3,0.4,0.8,0.6,1.4c0.5-0.3,0.9-1.3,1.2-1.3
				c0,0.2,0.1,0.2,0,0.5c0.5-0.9,1.5,0,2.1-1.1c0,0.1,0.1,0.2,0.1,0.3c-0.1-0.6-0.1-1.1-0.1-1.5c0.3,0,0.5-0.7,0.7,0
				c-0.2,0-0.2,0.3-0.3,0.5l0.3-0.3c0.3,1-0.4,0.4-0.4,1.1c0.6-0.3,1.3-1.2,1.7-0.9c0.1,1-1.1,0.3-0.5,1.2l-0.7-0.4
				c0.5,1.6-0.4-0.1,0.1,1.6c0.9,0.3,1-0.5,2-0.2c0.2-0.6-0.1-0.8,0.1-1.4c1.3-1,1,2.6,2,1.2c0.3-0.7,0.3-2,1-1.3l-0.2,1.2
				c0.9,0.1,0.5-1.7,1.5-0.9c-0.2,0.5-0.7,0.4-0.6,0.5c0.6,0.9,0.4-0.7,0.9-0.7l0.1,1c1-0.2,2-0.9,3.1-1.1c-0.1,0.3-0.2,0.6,0,0.9
				c1.3-0.5,2.9,0.1,4.2,0.7l0.5-0.9c0.1,0,0.2,0.4,0.1,0.6c0.5,0.3,0-0.6,0.3-0.9c0.3-0.1,0.4,0.5,0.2,0.8c0.9-0.7,2.5-1.6,3.5-0.7
				l-0.2,0.3c0.7,0.4,0.8-1.8,1.5-1l-0.1,0.2c1.6,0.4,3.3-0.4,4.5,0.9c0.2-1.3,1.6,0.6,1.7-1.2c0.9,0.9,0.6,1.2,1.9,1.8
				c0.3,0.1,0.5-1.1,0.9-1.3l0,0.9l0.6-1l0.3,1.1l0.4-0.2c-0.2-0.1-0.3-0.4-0.3-0.7c0.6-0.4,1.5,0.6,1.5,1.1l1.5-0.8
				c0,0.4-0.3,0.5-0.5,0.7c0.8-0.9,0.1,1,0.9,0.1c-0.1-0.2,0.1-0.6,0.1-0.7c0.4,0.6,1.2,0.6,1.8,0.3l-0.1,0.6
				c1.1,0.2,2.3-0.3,3.5-0.3c-0.4-0.3-0.3-1.4,0-1.5l0.1,1c0.2-0.6-0.4-0.4,0.1-1.1c0.5,0.1,0.3,1.1,0,1.4l0.6-0.3
				c0,0.3-0.1,0.4-0.1,0.8c0.2-0.6,1,1,1.3-0.1l0,0.3c1.2,0,1.8-0.3,2.8-0.4c0-0.8,0.4-0.7,0.7-1.3c0.7,0.3,1.5,0.9,2.4,0.9
				c0.6-0.4,0.2-0.7,0.5-1.2c0,0.8,0.9,0.7,0.5,1.2c1.1-0.1,1.3-0.2,2.7-0.8c-0.1-0.3-0.3-0.5-0.2-0.7c0.2-0.1,0.5,0.3,0.5,0.7
				l-0.1,0.1c1.5-1.2,3.4,2.2,4.6,0.6l-0.1,0.1l1.2-0.8c0.6,0.1-0.3,0.6,0.1,1.1c1.3-1.3,2.1,0.2,3.2-0.7c0.8,2.3,3-0.2,4.1,1.3
				l-0.1-0.5c0.3-0.5,0.4,0.3,0.6,0.4c0-0.4-0.3-0.5-0.1-0.8c2.5-0.6,5.2,0.8,7.7,1.3c0.9,0.1,0.5-2.8,1.7-1.5l-0.3,1
				c1.9-1.2,3.9,0,5.7-1c-0.1,0.2-0.1,0.5-0.3,0.5c0.4,0.7,1.4,0,1.5-0.6c0.3,0.1,0.1,0.5,0.2,0.8c0.4,0.4,1-0.9,1.2-0.2
				c0,0.1-0.1,0.2-0.2,0.3c0.3-0.3,1.2,0.1,0.9-0.7c0.7,0.4,1.3-0.4,1.9,0.1c0.4-0.9,1.2,0.4,1.3-0.9c0,1.4,1.2,1.1,1.7,0.5
				c-0.1,0.4,0.4,0.4,0.2,1c0.5,0,1-0.3,0.9-1c0.9,1.6,1.9-1.3,2.4,0.8c1.5-0.7,2.9-1.2,4.2-1.5c0,1.4-1.5,0.1-1.4,1.6
				c1.3-0.6,2-1.7,3.3-1.4c0.3,0.2-0.2,0.6-0.3,0.8c1.3-0.6,2.5,0.1,3.6-0.6c0,0.1-0.1,0.3-0.2,0.4c0.2,0,0.5,0.2,0.5-0.4l-0.2,0.2
				c-0.4-0.9,0.9-1.9,0.9-2.3c-0.4,1.8,1.1,0.4,0.5,2.7c0.1-0.1,0.3-0.4,0.3-0.8c0.2,0.1,0.3,0.4,0.1,0.8c0.8-0.3,0.5-1,1.2-1
				c0,0.3-0.1,0.4-0.2,0.8c0.4-0.6,0.7-1.2,1.3-0.9c0,0.2,0,0.4-0.1,0.4c1-0.1,1.8-1.5,2.9-1c-0.3,1.3,0.4,0.4,0.5,1.5l0.6-0.3
				l-0.2-0.5c0.5,0,1-0.8,1.5-0.4l-0.4,0.5l1-0.2l-0.6-0.4c0.5-0.6-0.1-1.4,0.7-1.1c-0.1,0.1,0.5,0,0.8,0.7c0,0,0,0,0,0
				c0.3-0.4,0.5-0.7,0.9-0.5c0.1,0.4-0.1,1.2,0,1.5c0.3-0.9,1.3-0.3,1.6-1.3c-0.1,0.2-0.1,0.8-0.1,0.9l0.2-0.8
				c0.3,0.2,0.3,0.4,0.2,0.8c0.8,0.1-0.2-1.4,0.7-0.8c-0.1,0.1,0,0.2-0.2,0.3c0.9,0.3,1.7-0.5,2.6-0.1c0.2,1.1-0.7,0.3-0.4,1.2
				c1.2-0.2,2.5-1.4,3.6-1.1l-0.2-0.1c0.2-1.6,0.9,0.8,1.4,0c-0.1,0.1-0.2,0.9-0.1,0.7c0.8,0.3,1.6-0.4,2.8-0.9l-0.1,0.4
				c0.5,0.4,1.2,0.2,1.7,0.4c0.1-0.4,0.4-0.3,0.3-0.9c1.6,2.3,3-1.2,4.3,0.7c-0.2,0-0.4,0.4-0.3,0.4l1.2-0.4c-0.1-0.7-0.2-0.4-0.4-1
				c0.1-0.4,0.5-0.7,0.8-0.7c-0.5,0.5,0,1.1,0.2,1.5c0-0.2,0-0.4,0-0.7c0.6,1.2,0.1-1.4,0.9-0.6l0,0.4c0.3-0.2,0.6-0.7,0.9-0.6
				c0.1,0.8-0.3,0.4-0.4,1c0.5,0,0.9-1.5,1.4-0.7c-0.2,0.2-0.5,0.2-0.7,0.4c0.5,0.9,0.5,0.7,0.9,0.9l0,0l0.8,0.4l-0.2-0.3
				c0.6-2.1,1.2-0.4,2-1.8c-0.8,1.3-0.1,0.8-0.2,1.7c0.2,0.3,0.5,0.5,0.4,0.8c0.4-0.7,0.6,0.6,1.2-0.5c0,0.3,0.4,0,0.3,0.8
				c0.5-0.2-0.1-0.5-0.1-0.9c0.8-1,1.8,1.2,2.9-0.2c0.9-0.6,1.1-1.6,2-2c0.3,0.5-0.2,1.1-0.2,1.1c0.5,0.4,0.8,0.4,1.3,0
				c-0.1,0.3,0,0.5,0.1,0.8c0.4-0.1,0.2-1.1,0.7-0.6c-0.1,0.3-0.2,0.8-0.4,1.2c0.4-0.3,0.8-0.8,1.3-1.1c0.1,0.5-0.3,0.8-0.4,1.1
				c0.5-0.2,1.3-0.5,1.4-1.3l-0.3-0.3c0.2,0,0.1,0.7,0,0.8c-0.4,0.6-0.6-0.3-0.6-0.6l0.3-0.2c-0.3-1.7-1.3,0.3-1.9,0.2l0.3-1.2
				l-0.6,1c-0.1-0.3-0.2-1,0.1-1.2c-0.5-0.6-0.4,0.4-0.8-0.2c0-0.1,0-0.2,0-0.2l-0.4,0.4c0.1-0.3-0.1-0.9,0.2-0.7
				c-0.8-0.7-1.3,0.9-1.6,0l0.1-0.1c-1.1,0.4-0.1,0.9-0.9,2l-0.6-2.3l-0.1,0.9c-0.1,0-0.3-0.1-0.3-0.5c-0.4,0.6,0.1,0.4-0.2,1
				c-0.5-0.8-1.5,0.4-1.6-1.1c-0.2,0.7,0.5,0.5-0.1,1c-0.2-1.6-0.7,0.3-1.2-0.5c0.2-0.8,0.6-0.4,0.1-1.1c-0.3,1.4-1-0.3-1.4,0
				c0,1.1-0.9,0.5-1.6,0.8c0-0.4-1.3-0.6-2-1l0-0.2c-0.1,1.1-0.8,0.9-1.3,1.1c0-0.7,0.1-0.9,0.4-1.2l-0.5,0
				c-0.1,0.4-0.3,0.5-0.6,0.7l0.1-0.8c-0.6,0-1.2,1-2,0.4c0,0.8,0.6,2.1-0.2,2.7c0-0.4-0.1-1.1,0.2-1.3c-0.1,0.1-0.3,0.3-0.4,0.2
				l0.3-0.7c-0.4-0.3-0.2,0.6-0.5,0.5c0-0.6-0.2-0.4-0.2-0.9c0.1-0.1,0.3,0.2,0.4,0c-0.3-0.1-0.7-0.5-0.8-0.9c0,0.3,0,0.8-0.2,0.9
				c-0.6,0-0.2-0.7-0.6-1c-0.1,0.4-0.5,0-0.6,0.9c-0.2,0-0.2-0.4-0.3-0.7c-0.3,0.4-1.5,0.1-1.1,1.1l0.1,0.2c0,0,0,0.2-0.1,0.2
				c0,0,0,0,0,0h0c-1,1-2.2-0.7-3.2-0.3l0-0.4c-0.6,0.3-1.4,0.2-1.8,0.8c-0.2,0-0.4-0.6-0.4-0.9c-0.5,0.2-0.5,0.5-1.2,0.1
				c0.5-0.5-0.2-0.5,0.5-0.4c-0.6-0.3-0.8-0.7-1.4,0.1c0.2-0.8-0.5-1-0.8-0.7l0.4,0.5c-0.3,0.1-0.6,0-0.9,0l0.2-1
				c-1.3-1.2-2.3,2.1-3.2,0c-0.3,0.7,0.7,0.5,0.4,1.3c-0.6-0.1-1.2-1.6-1.4-1.6c-0.8-0.6-0.7,1.5-1.6,1.1c0.1,0.4,0.2,1.3-0.4,1.6
				c-0.6-0.1-0.7-1.5-0.3-1.8c0.1,0,0.2,0.1,0.2,0.2c0.2-0.1,0.4-0.3,0.2-0.7l-0.1,0.4c-0.3-0.4-1.1-0.3-0.9-0.9
				c-0.4,0.3-0.2,0.6,0.1,0.8c-0.7-0.5-1.2,0-1.9-0.4c0.1,0.2,0.2,0.6,0.1,0.6c-1.1-0.4-0.5,0.7-1.3,0.8c-0.4-0.5,0.2-1.3-0.6-0.8
				c-0.5-0.4-0.1-0.9,0.1-1.2c-0.7,0.7-1.3-0.5-1.7-0.6l0.4-0.3c-0.2,0.2-0.4,0.2-0.6,0.2l0.2,0.7c-0.2-0.1-0.4-0.1-0.4-0.4
				c-0.2,0.5,0.2,1.2-0.3,1.8c-0.3-0.4-0.9,0.4-1-0.6c0.9,0.3-0.1-0.9,0.7-1.1c-0.1,0.1-0.3,0.1-0.5,0c0-0.1,0-0.2,0.1-0.2
				c-0.9-0.8-0.4,1.1-1.3,1c0.1-0.5-0.2-1-0.4-0.9c0.4,0,0.2,0.9-0.2,1.3c-0.6-0.4-0.6,0.3-0.9,0.3l0.3,0.2
				c-0.1,0.5-0.4,0.5-0.8,0.6c0-0.4,0.4-0.3,0.2-0.5c-0.4,0.9-1-1-1.6-0.3c-0.3-0.4,0-1-0.3-1.2c-0.7,0.7-0.8-0.7-1.5-0.2
				c0.2,0.7,0.2,0.5-0.3,1.2l1.2-0.5l-0.8,1c0.4,0,0.8-0.4,1-0.3c-0.4,0.6-0.3,0.4-0.2,1c-0.5-1.1-1,0.6-1.6-0.1l0-1.8
				c-0.9-0.8-1.5,0.9-2.6,0.5l0.4,0.3c-0.1,0.7-0.7,0.1-1.1,0.4c0-0.6-0.2-0.8-0.3-1.2c0,0.4-0.8,0-0.9,1.1l-0.5-0.8
				c-0.9-0.3-1,1.7-1.9,1.5c0.3-0.6-0.1-1.1,0.4-1.5c-0.3,0-0.5-0.1-0.6,0.3c-0.2-0.4-0.8,0.8-1.1,0.2c-0.1,0.3-0.2,0.9-0.5,0.8
				c0-0.1,0-0.3,0-0.3c0,0.3-0.5,0.4-0.2,1.1c-0.9-1.8-2.5,0.1-3.3-1.5c-0.6,0.2-1.4,0.4-2,0.4c0-0.2,0-0.3,0.1-0.2
				c-0.8-0.6-0.5,1.7-1.4,1.1c-0.5-1,0.5-0.5,0.2-0.9c-0.1-1.9-1.1,0.3-1.7-0.9l0.1-0.1c-0.5-0.7-1.1,0.7-1.9,0.6c0,0,0-0.2,0-0.3
				c-0.5,1-1.5,1.3-2.2,1.6c0.2-0.8,0.3-0.4,0.2-1.2c-0.3,0.1,0.1,1.2-0.6,1.5c-0.2-0.4-0.7-0.8-0.7-1.6l0.6,0
				c-0.3-1.1-0.8,0-1.1-0.1l0-0.5c-0.9,0.2-1,1.3-2,1.2l0.1,0.4c-0.6,1.2-0.5-0.7-1,0.2l-0.2-1.2c-0.4,0.3-1.3,1.1-1.9,1.4
				c0.4-0.9,1.1-1.3,1.6-1.8c-0.4,0-1.2,0.1-1.4,0.7c0.1-0.1,0.3-0.4,0.5-0.2c-0.4,0.9-1,1.4-1.7,1.4c0.1-2.3-1.9-0.6-2.4-2.4
				c-1.3,0.8-2.5-0.4-4-0.2c0.5,1.8-0.4,0.1-0.3,1.9c-0.3,0.1-0.5,0.1-0.5,0l-1-1.1c-0.2-0.5,0.3-0.4,0.3-0.8
				c-0.8-0.1-0.3-0.8-0.8-1.3c0.1,0.7-0.3,0.9-0.7,0.7l0.6,0.8c-1.1,1-0.9-1.5-2-0.6l0.3-0.6c-0.5,0.3-2,0-2.6,1.5
				c-0.1-0.2-0.2-0.7,0-0.8c-1.3-0.2-2.9,1.6-3.9,0.7l0.1-0.4c-0.2,0.1-0.4,0.8-0.7,0.4c0-0.2,0.1-0.4,0-0.5c-0.1,0.2-0.6,0.8-1,0.5
				l0.3-0.5c-1.3-0.6-2,1.2-3,1.5c0-1.3-1-1.7-1.5-2l0-0.2c-1.5-0.2-2.5,1.1-3.9,1.6c-0.9-1.4-2.9-0.6-4.3-1.4c0.2,0.2,0,1-0.3,1.2
				c-0.3-0.3-0.9,0.9-0.8-0.3l0.1,0c-0.2-1.2-0.9-0.9-1.4-0.9l-0.1,1.6c-1.4-2.3-3.5,0.8-4.3-1.2c-0.3,0.4-0.7,0.4-1.1,0.8l0-0.8
				c-0.9-0.2-1.4-0.3-2.5-0.1l0.2-0.6c-0.6-0.1-0.8,2.4-1.4,2.5l-0.2-1.3c-1.1,0-2.2-1.1-3.3,0.1c0-0.2,0.1-0.6,0.2-0.6
				c-0.5,0-2-0.9-1.8,0.9c0-1.1-1.1-0.1-1.7,0.4l0.1-0.8c-0.5,1.1-0.5,1.4-1.2,1.7c-0.2-0.1-0.1-0.7,0.1-0.5
				c-0.6-0.4-0.4,0.8-1.1,0.3l0.2-0.5c-0.6-0.1-0.5,0.2-0.8,0.8c-0.4,0.3-1.1-0.2-1.2-1c-0.1,0.5-0.4,1.1-0.7,0.9
				c0-0.3,0.1-0.5,0.1-0.5c-1-0.6-1.4,1-2.1,0.2c0-0.3-0.1-0.4-0.1-0.5c0.8,0,1.4,0.1,1.3,0.1c0-0.8-0.6-0.9-0.1-2
				c-0.5,0.6-1.3,1.8-1.9,1.5c0-0.1-0.1-0.1-0.1-0.3l0.1-0.1c-0.1-0.1-0.3,0-0.4,0.1c-0.2-0.1-0.3-0.2-0.5-0.2
				c-0.1-0.6-0.7-0.3-1-0.4c0,0.8-0.4,0.7,0,1.4c0-0.1,0.1-0.1,0.3-0.1c0,0,0.1,0,0.1-0.1c0,0,0,0,0,0.1c0.2,0,0.5,0,0.8-0.1
				c-0.2,0.4-0.5,0.8-0.8,0.3c-0.2,0.5-0.3,1.1-0.4,1.4c-0.4-1.2-1.2-1.8-1.3-2.5c-0.9,0.5-2.2,0.3-2.8,1.9
				c-0.3,0.2-0.3-0.5-0.4-0.7c0.2-0.2,0.3-0.1,0.4-0.4c-0.5,0.4-1.6,0.2-1.7,1.3c-0.7-0.5,0.4-1-0.5-0.8l0.1-0.3
				c-1.8-1.8-2.9,2.8-4.9,0.6c0.1,0.1,0.2,0.2,0.2,0.4c-2.3-1-4.7,0.9-6.9-0.6c-0.6-0.3-0.7,0.4-1.1,0.9l-0.1-0.9l-0.7,1
				c-0.9,0.8-1.6-2.2-2.8-0.8l0.2,0.6c-0.4-0.1-1.4,0.4-1.3-0.3c0,0.1-0.1,0.6-0.3,0.3l0-0.5l-1.1,0.8c-0.8-0.3,0.1-1.9-1.1-2
				c-0.4,0.2-1.3,1.4-1.1,1.7c0.2,0,0.5,0.3,0.5,0.8l-0.4,0.2c-0.1,1.4-0.4,2.8,0.6,3.8l0.7-0.9l0.2,0.7l-0.6,0
				c0.3,0.6,0.5,0.1,0.8-0.3c0.1,0.4,0.2,0.6,0.3,0.7l0.7-1.3c0.1,0.5-0.3,1.1,0.2,1.4c0.3-0.6-0.3-1.2,0.2-1.6
				c0.3,0.6,0.2,1.2,0.6,0.6c0.1,0.4,0,0.6-0.2,0.7c0.3-0.4,0.9-0.2,1.1-0.9c0.3,0.8,1.2-0.2,1.1,1.1c0.1-0.3,0.6-1,0.9-1.1
				c-0.6,1.6,1.2,0.1,1,1.8c0.4-1.4,1.6-0.6,2.3-1.4c0,0.1-0.1,0.3-0.2,0.3c0.4,0.1,0.6,0.5,0.8,0.8c0.1-1.2,0.7-1.4,1.1-2.2
				c0.5,1.1-0.3,1.4-0.2,2.5c0-1,0.9-1,0.7-1.7c0.4,0.7,0.3,0.3,0.6,1.3c0.1-1.5,0.4-0.2,0.7-1.2c0.6,0.7,0.1,1.4,0.8,0.9
				C282.1,144.1,281.5,144.6,281.5,144.6z M296.8,142.1C296.8,142.1,296.8,142.1,296.8,142.1c-0.1,0-0.2,0.1-0.3,0.1
				C296.5,142.1,296.6,142.1,296.8,142.1z M298,142.1c-0.2,0-0.3,0-0.6,0c0-0.3,0-0.6,0.1-0.6C297.5,141.7,297.9,141.8,298,142.1z
				 M295.3,136.2c0.2-0.1,0.3,0,0.3,0.2c-0.1,0-0.2,0-0.4,0.1c0,0,0,0.1,0,0.1C295.3,136.5,295.3,136.3,295.3,136.2z"/>
			<path fill="#C7B299" d="M295,137.3C294.9,137.4,294.9,137.4,295,137.3c0,0.1,0,0.2,0,0.3c0-0.1,0-0.2,0.1-0.3
				C295,137.3,295,137.3,295,137.3z"/>
			<path fill="#C7B299" d="M410.9,138.6L410.9,138.6c0,0,0,0,0,0.1C410.9,138.7,410.9,138.6,410.9,138.6z"/>
			<polygon fill="#C7B299" points="315.7,143.7 315.7,143.5 315.6,143.7 			"/>
			<path fill="#C7B299" d="M418,141.5c0,0.1,0,0.2,0.1,0.2C418,141.6,418,141.6,418,141.5z"/>
			<path fill="#C7B299" d="M421,141.7l0.4,0.3C421.2,141.8,421.1,141.7,421,141.7z"/>
			<path fill="#C7B299" d="M423.3,142.1c0-0.1,0-0.3,0-0.4c0,0,0,0,0,0L423.3,142.1z"/>
			<path fill="#C7B299" d="M386.1,143.1C386.1,143.1,386.1,143.1,386.1,143.1C385.8,143.3,386,143.2,386.1,143.1z"/>
			<path fill="#C7B299" d="M397.2,141.1c-0.1,0.2-0.2,0.3-0.4,0.4C397,141.6,397.2,141.6,397.2,141.1z"/>
			<path fill="#C7B299" d="M373.8,144.1C373.8,144.1,373.8,144.1,373.8,144.1C373.8,144.1,373.7,144.1,373.8,144.1L373.8,144.1z"/>
			<path fill="#C7B299" d="M396.3,141.5c0.2,0.2,0.4,0.1,0.5,0C396.7,141.5,396.5,141.4,396.3,141.5z"/>
			<path fill="#C7B299" d="M433.5,142.5l0.1,0c0-0.1,0-0.1,0-0.1L433.5,142.5z"/>
			<path fill="#C7B299" d="M433.6,142.4l0.1-0.1C433.7,142.3,433.6,142.3,433.6,142.4z"/>
			<path fill="#C7B299" d="M434,142.1l-0.3,0.2C433.8,142.3,433.9,142.3,434,142.1z"/>
			<path fill="#C7B299" d="M430.4,142.1l0,0.3C430.4,142.3,430.4,142.2,430.4,142.1z"/>
			<path fill="#C7B299" d="M429.4,142.2c0.2,0.1,0.6,0.7,0.9,0.5l0-0.2C430.2,142.8,429.7,141.7,429.4,142.2z"/>
			<path fill="#C7B299" d="M425.5,138.4l0.8,0.2c-0.1-0.3-0.3-0.8,0-0.8C425.3,136.8,426.5,138.5,425.5,138.4z"/>
			<path fill="#C7B299" d="M423.1,137.9c0.4-0.2,0-0.5,0-0.7C422.8,137.6,422.7,137.6,423.1,137.9z"/>
			<path fill="#C7B299" d="M405.4,137.9l0-0.8C405.1,137.3,405.4,137.4,405.4,137.9z"/>
			<polygon fill="#C7B299" points="402,141.9 402.3,142.4 402.5,141.7 			"/>
			<polygon fill="#C7B299" points="400,136.4 400.2,136.3 399.6,136.6 			"/>
			<path fill="#C7B299" d="M370.3,136.7l0.1,0.9C370.7,137.5,370.7,136.4,370.3,136.7z"/>
			<path fill="#C7B299" d="M357.5,137.7c-0.1-0.5-0.5-0.8-0.7-0.3C357.1,137.4,357.4,137.8,357.5,137.7z"/>
			<polygon fill="#C7B299" points="319.1,136.1 319.4,135.8 318.9,136.1 			"/>
		</g>
	</g>
</g>
</svg>
